<?xml version="1.0" encoding="utf-8"?>
<!-- Generator: Adobe Illustrator 19.0.0, SVG Export Plug-In . SVG Version: 6.00 Build 0)  -->
<svg version="1.1" id="Camada_1" xmlns="http://www.w3.org/2000/svg" xmlns:xlink="http://www.w3.org/1999/xlink" x="0px" y="0px"
	 viewBox="0 0 970.5 249" style="enable-background:new 0 0 970.5 249;" xml:space="preserve">
<style type="text/css">
	.st0{fill-rule:evenodd;clip-rule:evenodd;fill:#63AF66;}
	.st1{fill-rule:evenodd;clip-rule:evenodd;fill:#1C3F1D;}
	.st2{fill:#63AF66;}
	.st3{fill:#1C3F1D;}
</style>
<g id="XMLID_1_">
	<g id="XMLID_6_">
		<g id="XMLID_7_">
			<path id="XMLID_19_" class="st0" d="M94,46.4c-3.4-3.4-3.4-8.1,0-11.5l20.9-21c3.4-3.4,8-3.4,11.4,0l20.9,21
				c3.4,3.4,3.4,8.1,0,11.5l-20.9,21c-3.4,3.4-8,3.4-11.4,0L94,46.4z"/>
			<path id="XMLID_17_" class="st0" d="M10.6,130.2c-3.4-3.4-3.4-8.1,0-11.5l20.9-21c3.4-3.4,8-3.4,11.4,0l20.9,21
				c3.4,3.4,3.4,8.1,0,11.5l-20.9,21c-3.4,3.4-8,3.4-11.4,0L10.6,130.2z"/>
			<path id="XMLID_16_" class="st1" d="M134.8,87.5c-3.4-3.4-3.4-8.1,0-11.5l20.9-21c3.4-3.4,8-3.4,11.4,0l20.9,21
				c3.4,3.4,3.4,8.1,0,11.5l-20.9,21c-3.4,3.4-8,3.4-11.4,0L134.8,87.5z"/>
			<path id="XMLID_15_" class="st0" d="M177.4,130.2c-3.4-3.4-3.4-8.1,0-11.5l20.9-21c3.4-3.4,8-3.4,11.4,0l20.9,21
				c3.4,3.4,3.4,8.1,0,11.5l-20.9,21c-3.4,3.4-8,3.4-11.4,0L177.4,130.2z"/>
			<path id="XMLID_13_" class="st1" d="M134.8,171.3c-3.4-3.4-3.4-8.1,0-11.5l20.9-21c3.4-3.4,8-3.4,11.4,0l20.9,21
				c3.4,3.4,3.4,8.1,0,11.5l-20.9,21c-3.4,3.4-8,3.4-11.4,0L134.8,171.3z"/>
			<g id="XMLID_4_">
				<path id="XMLID_18_" class="st1" d="M51.4,87.5C48,84,48,79.4,51.4,76l20.9-21c3.4-3.4,8-3.4,11.4,0l20.9,21
					c3.4,3.4,3.4,8.1,0,11.5l-20.9,21c-3.4,3.4-8,3.4-11.4,0L51.4,87.5z"/>
				<path id="XMLID_14_" class="st1" d="M51.4,171.3c-3.4-3.4-3.4-8.1,0-11.5l20.9-21c3.4-3.4,8-3.4,11.4,0l20.9,21
					c3.4,3.4,3.4,8.1,0,11.5l-20.9,21c-3.4,3.4-8,3.4-11.4,0L51.4,171.3z"/>
				<rect id="XMLID_12_" x="72.9" y="105.7" class="st1" width="10.2" height="37.7"/>
			</g>
			<rect id="XMLID_11_" x="115.5" y="148.5" class="st0" width="10.2" height="37.7"/>
			<rect id="XMLID_10_" x="142.7" y="119.4" class="st0" width="37.4" height="10.3"/>
			<path id="XMLID_9_" class="st0" d="M94,214.1c-3.4-3.4-3.4-8.1,0-11.5l20.9-21c3.4-3.4,8-3.4,11.4,0l20.9,21
				c3.4,3.4,3.4,8.1,0,11.5l-20.9,21c-3.4,3.4-8,3.4-11.4,0L94,214.1z"/>
			<path id="XMLID_8_" class="st0" d="M94,130.2c-3.4-3.4-3.4-8.1,0-11.5l20.9-21c3.4-3.4,8-3.4,11.4,0l20.9,21
				c3.4,3.4,3.4,8.1,0,11.5l-20.9,21c-3.4,3.4-8,3.4-11.4,0L94,130.2z"/>
		</g>
	</g>
	<g id="XMLID_25_">
		<path id="XMLID_26_" class="st2" d="M308.7,104c0,7.5-2.4,13.3-7.1,17.3c-4.7,4-11.4,6-20.1,6h-6.4v24.9h-14.9V82.1h22.4
			c8.5,0,15,1.8,19.4,5.5C306.5,91.3,308.7,96.7,308.7,104z M275.2,115.1h4.9c4.6,0,8-0.9,10.3-2.7c2.3-1.8,3.4-4.4,3.4-7.9
			c0-3.5-1-6.1-2.9-7.7c-1.9-1.7-4.9-2.5-8.9-2.5h-6.8V115.1z"/>
		<path id="XMLID_29_" class="st2" d="M335.4,152.2h-14.6V77.6h14.6V152.2z"/>
		<path id="XMLID_31_" class="st2" d="M384.8,152.2l-2.8-7.3h-0.4c-2.5,3.1-5,5.2-7.6,6.4c-2.6,1.2-6,1.8-10.2,1.8
			c-5.1,0-9.2-1.5-12.1-4.4c-3-2.9-4.4-7.1-4.4-12.6c0-5.7,2-9.9,6-12.6c4-2.7,10-4.2,18-4.5l9.3-0.3v-2.3c0-5.4-2.8-8.1-8.3-8.1
			c-4.3,0-9.3,1.3-15.1,3.9l-4.8-9.9c6.2-3.2,13-4.8,20.5-4.8c7.2,0,12.7,1.6,16.5,4.7c3.8,3.1,5.8,7.9,5.8,14.3v35.7H384.8z
			 M380.4,127.3l-5.7,0.2c-4.3,0.1-7.4,0.9-9.5,2.3c-2.1,1.4-3.1,3.5-3.1,6.4c0,4.1,2.4,6.2,7.1,6.2c3.4,0,6.1-1,8.1-2.9
			c2-1.9,3-4.5,3-7.8V127.3z"/>
		<path id="XMLID_103_" class="st2" d="M432.6,141.5c2.6,0,5.6-0.6,9.2-1.7v10.9c-3.6,1.6-8.1,2.4-13.4,2.4
			c-5.8,0-10.1-1.5-12.8-4.4c-2.7-3-4-7.4-4-13.3v-25.8h-7v-6.2l8.1-4.9l4.2-11.3h9.3v11.4h15v11h-15v25.8c0,2.1,0.6,3.6,1.8,4.6
			C429.1,141,430.7,141.5,432.6,141.5z"/>
		<path id="XMLID_105_" class="st2" d="M486.6,152.2l-2.8-7.3h-0.4c-2.5,3.1-5,5.2-7.6,6.4c-2.6,1.2-6,1.8-10.2,1.8
			c-5.1,0-9.2-1.5-12.1-4.4c-3-2.9-4.4-7.1-4.4-12.6c0-5.7,2-9.9,6-12.6c4-2.7,10-4.2,18-4.5l9.3-0.3v-2.3c0-5.4-2.8-8.1-8.3-8.1
			c-4.3,0-9.3,1.3-15.1,3.9l-4.8-9.9c6.2-3.2,13-4.8,20.5-4.8c7.2,0,12.7,1.6,16.5,4.7c3.8,3.1,5.8,7.9,5.8,14.3v35.7H486.6z
			 M482.3,127.3l-5.7,0.2c-4.3,0.1-7.4,0.9-9.5,2.3c-2.1,1.4-3.1,3.5-3.1,6.4c0,4.1,2.4,6.2,7.1,6.2c3.4,0,6.1-1,8.1-2.9
			c2-1.9,3-4.5,3-7.8V127.3z"/>
		<path id="XMLID_108_" class="st2" d="M541.5,109.6h-12.7v42.6h-14.6v-42.6h-8.1v-7l8.1-3.9v-3.9c0-6.1,1.5-10.6,4.5-13.4
			c3-2.8,7.8-4.2,14.4-4.2c5,0,9.5,0.8,13.5,2.3l-3.7,10.7c-2.9-0.9-5.7-1.4-8.1-1.4c-2.1,0-3.6,0.6-4.5,1.8
			c-0.9,1.2-1.4,2.8-1.4,4.7v3.4h12.7V109.6z"/>
		<path id="XMLID_110_" class="st2" d="M598.6,125.3c0,8.7-2.3,15.5-6.9,20.5c-4.6,4.9-11,7.4-19.2,7.4c-5.1,0-9.7-1.1-13.6-3.4
			c-3.9-2.3-6.9-5.5-9.1-9.7s-3.2-9.1-3.2-14.8c0-8.8,2.3-15.6,6.9-20.4c4.6-4.9,11-7.3,19.3-7.3c5.1,0,9.7,1.1,13.6,3.4
			s6.9,5.4,9.1,9.6S598.6,119.7,598.6,125.3z M561.6,125.3c0,5.3,0.9,9.3,2.6,12c1.7,2.7,4.6,4.1,8.5,4.1c3.9,0,6.7-1.3,8.4-4
			c1.7-2.7,2.6-6.7,2.6-12.1c0-5.3-0.9-9.3-2.6-11.9c-1.7-2.7-4.6-4-8.5-4c-3.9,0-6.7,1.3-8.4,4C562.4,116,561.6,119.9,561.6,125.3z
			"/>
		<path id="XMLID_113_" class="st2" d="M640.6,97.6c2,0,3.6,0.1,4.9,0.4l-1.1,13.7c-1.2-0.3-2.6-0.5-4.3-0.5
			c-4.7,0-8.3,1.2-10.9,3.6c-2.6,2.4-3.9,5.8-3.9,10.1v27.3h-14.6V98.6h11.1l2.2,9h0.7c1.7-3,3.9-5.4,6.7-7.3
			C634.2,98.5,637.3,97.6,640.6,97.6z"/>
		<path id="XMLID_115_" class="st2" d="M703.2,152.2h-14.6v-31.3c0-3.9-0.6-6.8-1.9-8.7c-1.3-1.9-3.3-2.9-6.1-2.9
			c-3.7,0-6.5,1.4-8.1,4.1c-1.7,2.7-2.5,7.3-2.5,13.6v25.2h-14.6V98.6h11.2l2,6.9h0.8c1.4-2.5,3.5-4.4,6.2-5.8
			c2.7-1.4,5.8-2.1,9.3-2.1c8,0,13.5,2.6,16.3,7.9h1.3c1.4-2.5,3.6-4.4,6.3-5.8c2.8-1.4,6-2.1,9.5-2.1c6.1,0,10.7,1.6,13.8,4.7
			c3.1,3.1,4.7,8.1,4.7,15v34.9H722v-31.3c0-3.9-0.6-6.8-1.9-8.7c-1.3-1.9-3.3-2.9-6.1-2.9c-3.6,0-6.3,1.3-8,3.8
			c-1.8,2.6-2.7,6.6-2.7,12.2V152.2z"/>
		<path id="XMLID_117_" class="st2" d="M785.7,152.2l-2.8-7.3h-0.4c-2.5,3.1-5,5.2-7.6,6.4c-2.6,1.2-6,1.8-10.2,1.8
			c-5.1,0-9.2-1.5-12.1-4.4c-3-2.9-4.4-7.1-4.4-12.6c0-5.7,2-9.9,6-12.6c4-2.7,10-4.2,18-4.5l9.3-0.3v-2.3c0-5.4-2.8-8.1-8.3-8.1
			c-4.3,0-9.3,1.3-15.1,3.9l-4.8-9.9c6.2-3.2,13-4.8,20.5-4.8c7.2,0,12.7,1.6,16.5,4.7c3.8,3.1,5.8,7.9,5.8,14.3v35.7H785.7z
			 M781.3,127.3l-5.7,0.2c-4.3,0.1-7.4,0.9-9.5,2.3c-2.1,1.4-3.1,3.5-3.1,6.4c0,4.1,2.4,6.2,7.1,6.2c3.4,0,6.1-1,8.1-2.9
			c2-1.9,3-4.5,3-7.8V127.3z"/>
		<path id="XMLID_120_" class="st3" d="M826.7,152.2h-14.6V82.1h40.2v12.2h-25.5v18.1h23.8v12.1h-23.8V152.2z"/>
		<path id="XMLID_122_" class="st3" d="M913.5,125.3c0,8.7-2.3,15.5-6.9,20.5c-4.6,4.9-11,7.4-19.2,7.4c-5.1,0-9.7-1.1-13.6-3.4
			c-3.9-2.3-6.9-5.5-9.1-9.7s-3.2-9.1-3.2-14.8c0-8.8,2.3-15.6,6.9-20.4c4.6-4.9,11-7.3,19.3-7.3c5.1,0,9.7,1.1,13.6,3.4
			s6.9,5.4,9.1,9.6S913.5,119.7,913.5,125.3z M876.4,125.3c0,5.3,0.9,9.3,2.6,12c1.7,2.7,4.6,4.1,8.5,4.1c3.9,0,6.7-1.3,8.4-4
			c1.7-2.7,2.6-6.7,2.6-12.1c0-5.3-0.9-9.3-2.6-11.9c-1.7-2.7-4.6-4-8.5-4c-3.9,0-6.7,1.3-8.4,4C877.3,116,876.4,119.9,876.4,125.3z
			"/>
		<path id="XMLID_125_" class="st3" d="M955.4,97.6c2,0,3.6,0.1,4.9,0.4l-1.1,13.7c-1.2-0.3-2.6-0.5-4.3-0.5
			c-4.7,0-8.3,1.2-10.9,3.6c-2.6,2.4-3.9,5.8-3.9,10.1v27.3h-14.6V98.6h11.1l2.2,9h0.7c1.7-3,3.9-5.4,6.7-7.3
			C949,98.5,952.1,97.6,955.4,97.6z"/>
	</g>
</g>
</svg>
